name C:/MyDriveSym/Projects/mobilecap/Data\Session20210813_0002\mocap\ForceDataProcessed\walkingTS2_forces.mot
datacolumns 19
datarows 27
range 0.85450000 0.86750000
endheader 
time	R_ground_force_vx	R_ground_force_vy	R_ground_force_vz	R_ground_force_px	R_ground_force_py	R_ground_force_pz	R_ground_torque_x	R_ground_torque_y	R_ground_torque_z	L_ground_force_vx	L_ground_force_vy	L_ground_force_vz	L_ground_force_px	L_ground_force_py	L_ground_force_pz	L_ground_torque_x	L_ground_torque_y	L_ground_torque_z	
          0.85450000	          0.00000000	          0.00000000	          0.00000000	          0.46273800	          0.00000000	         -0.15000300	          0.00000000	          0.00000000	          0.00000000	        -87.08630200	        735.90574300	         15.11404200	          0.93221300	          0.00600000	         -0.29455300	          0.00000000	         -0.25231700	          0.00000000	
          0.85500000	          0.00000000	          0.00000000	          0.00000000	          0.46364000	          0.00000000	         -0.15005400	          0.00000000	          0.00000000	          0.00000000	        -86.90335300	        736.05607600	         15.10340900	          0.93242700	          0.00600000	         -0.29458500	          0.00000000	         -0.25538900	          0.00000000	
          0.85550000	          0.00000000	          0.00000000	          0.00000000	          0.46454200	          0.00000000	         -0.15010600	          0.00000000	          0.00000000	          0.00000000	        -86.71978100	        736.20319800	         15.09252200	          0.93264100	          0.00600000	         -0.29461700	          0.00000000	         -0.25836800	          0.00000000	
          0.85600000	          0.00000000	          0.00000000	          0.00000000	          0.46544500	          0.00000000	         -0.15015700	          0.00000000	          0.00000000	          0.00000000	        -86.53560500	        736.34715100	         15.08139700	          0.93285500	          0.00600000	         -0.29465000	          0.00000000	         -0.26125600	          0.00000000	
          0.85650000	          0.00000000	          0.00000000	          0.00000000	          0.46634700	          0.00000000	         -0.15020800	          0.00000000	          0.00000000	          0.00000000	        -86.35084500	        736.48797700	         15.07004700	          0.93306900	          0.00600000	         -0.29468200	          0.00000000	         -0.26405300	          0.00000000	
          0.85700000	          0.00000000	          0.00000000	          0.00000000	          0.46724900	          0.00000000	         -0.15026000	          0.00000000	          0.00000000	          0.00000000	        -86.16552200	        736.62571800	         15.05848700	          0.93328400	          0.00600000	         -0.29471400	          0.00000000	         -0.26676000	          0.00000000	
          0.85750000	          0.00000000	          0.00000000	          0.00000000	          0.46815200	          0.00000000	         -0.15031100	          0.00000000	          0.00000000	          0.00000000	        -85.97965400	        736.76041600	         15.04673100	          0.93349900	          0.00600000	         -0.29474700	          0.00000000	         -0.26937700	          0.00000000	
          0.85800000	          0.00000000	          0.00000000	          0.00000000	          0.46905400	          0.00000000	         -0.15036200	          0.00000000	          0.00000000	          0.00000000	        -85.79326200	        736.89211200	         15.03479100	          0.93371400	          0.00600000	         -0.29477900	          0.00000000	         -0.27190600	          0.00000000	
          0.85850000	          0.00000000	          0.00000000	          0.00000000	          0.46995600	          0.00000000	         -0.15041400	          0.00000000	          0.00000000	          0.00000000	        -85.60636600	        737.02084800	         15.02268200	          0.93392900	          0.00600000	         -0.29481100	          0.00000000	         -0.27434800	          0.00000000	
          0.85900000	          0.00000000	          0.00000000	          0.00000000	          0.47085900	          0.00000000	         -0.15046500	          0.00000000	          0.00000000	          0.00000000	        -85.41898400	        737.14666600	         15.01041700	          0.93414400	          0.00600000	         -0.29484400	          0.00000000	         -0.27670200	          0.00000000	
          0.85950000	          0.00000000	          0.00000000	          0.00000000	          0.47176100	          0.00000000	         -0.15051600	          0.00000000	          0.00000000	          0.00000000	        -85.23113600	        737.26960600	         14.99800700	          0.93435900	          0.00600000	         -0.29487600	          0.00000000	         -0.27897000	          0.00000000	
          0.86000000	          0.00000000	          0.00000000	          0.00000000	          0.47266300	          0.00000000	         -0.15056700	          0.00000000	          0.00000000	          0.00000000	        -85.04284200	        737.38971000	         14.98546600	          0.93457500	          0.00600000	         -0.29490900	          0.00000000	         -0.28115200	          0.00000000	
          0.86050000	          0.00000000	          0.00000000	          0.00000000	          0.47356600	          0.00000000	         -0.15061900	          0.00000000	          0.00000000	          0.00000000	        -84.85412100	        737.50701900	         14.97280600	          0.93479100	          0.00600000	         -0.29494100	          0.00000000	         -0.28325000	          0.00000000	
          0.86100000	          0.00000000	          0.00000000	          0.00000000	          0.47446800	          0.00000000	         -0.15067000	          0.00000000	          0.00000000	          0.00000000	        -84.66499200	        737.62157300	         14.96003800	          0.93500700	          0.00600000	         -0.29497400	          0.00000000	         -0.28526400	          0.00000000	
          0.86150000	          0.00000000	          0.00000000	          0.00000000	          0.47537000	          0.00000000	         -0.15072100	          0.00000000	          0.00000000	          0.00000000	        -84.47547300	        737.73341300	         14.94717400	          0.93522300	          0.00600000	         -0.29500600	          0.00000000	         -0.28719500	          0.00000000	
          0.86200000	          0.00000000	          0.00000000	          0.00000000	          0.47627300	          0.00000000	         -0.15077300	          0.00000000	          0.00000000	          0.00000000	        -84.28558500	        737.84257900	         14.93422500	          0.93544000	          0.00600000	         -0.29503900	          0.00000000	         -0.28904400	          0.00000000	
          0.86250000	          0.00000000	          0.00000000	          0.00000000	          0.47717500	          0.00000000	         -0.15082400	          0.00000000	          0.00000000	          0.00000000	        -84.09534600	        737.94911300	         14.92120200	          0.93565600	          0.00600000	         -0.29507100	          0.00000000	         -0.29081200	          0.00000000	
          0.86300000	          0.00000000	          0.00000000	          0.00000000	          0.47807700	          0.00000000	         -0.15087500	          0.00000000	          0.00000000	          0.00000000	        -83.90477500	        738.05305400	         14.90811500	          0.93587300	          0.00600000	         -0.29510400	          0.00000000	         -0.29249900	          0.00000000	
          0.86350000	          0.00000000	          0.00000000	          0.00000000	          0.47897900	          0.00000000	         -0.15092700	          0.00000000	          0.00000000	          0.00000000	        -83.71389100	        738.15444100	         14.89497500	          0.93609000	          0.00600000	         -0.29513700	          0.00000000	         -0.29410600	          0.00000000	
          0.86400000	          0.00000000	          0.00000000	          0.00000000	          0.47988200	          0.00000000	         -0.15097800	          0.00000000	          0.00000000	          0.00000000	        -83.52271200	        738.25331600	         14.88179100	          0.93630800	          0.00600000	         -0.29517000	          0.00000000	         -0.29563500	          0.00000000	
          0.86450000	          0.00000000	          0.00000000	          0.00000000	          0.48078400	          0.00000000	         -0.15102900	          0.00000000	          0.00000000	          0.00000000	        -83.33125700	        738.34971700	         14.86857400	          0.93652500	          0.00600000	         -0.29520200	          0.00000000	         -0.29708600	          0.00000000	
          0.86500000	          0.00000000	          0.00000000	          0.00000000	          0.48168600	          0.00000000	         -0.15108000	          0.00000000	          0.00000000	          0.00000000	        -83.13954500	        738.44368500	         14.85533100	          0.93674300	          0.00600000	         -0.29523500	          0.00000000	         -0.29846000	          0.00000000	
          0.86550000	          0.00000000	          0.00000000	          0.00000000	          0.48258900	          0.00000000	         -0.15113200	          0.00000000	          0.00000000	          0.00000000	        -82.94759300	        738.53525800	         14.84207300	          0.93696100	          0.00600000	         -0.29526800	          0.00000000	         -0.29975700	          0.00000000	
          0.86600000	          0.00000000	          0.00000000	          0.00000000	          0.48349100	          0.00000000	         -0.15118300	          0.00000000	          0.00000000	          0.00000000	        -82.75542100	        738.62447600	         14.82880800	          0.93717900	          0.00600000	         -0.29530100	          0.00000000	         -0.30097900	          0.00000000	
          0.86650000	          0.00000000	          0.00000000	          0.00000000	          0.48439300	          0.00000000	         -0.15123400	          0.00000000	          0.00000000	          0.00000000	        -82.56304700	        738.71137800	         14.81554300	          0.93739700	          0.00600000	         -0.29533400	          0.00000000	         -0.30212700	          0.00000000	
          0.86700000	          0.00000000	          0.00000000	          0.00000000	          0.48529600	          0.00000000	         -0.15128600	          0.00000000	          0.00000000	          0.00000000	        -82.37048800	        738.79600300	         14.80228700	          0.93761600	          0.00600000	         -0.29536700	          0.00000000	         -0.30320100	          0.00000000	
          0.86750000	          0.00000000	          0.00000000	          0.00000000	          0.48619800	          0.00000000	         -0.15133700	          0.00000000	          0.00000000	          0.00000000	        -82.17776300	        738.87838900	         14.78904800	          0.93783500	          0.00600000	         -0.29540000	          0.00000000	         -0.30420200	          0.00000000	
